<svg width="40" height="40" viewBox="0 0 40 40" fill="none" xmlns="http://www.w3.org/2000/svg">
<rect width="40" height="40" rx="8" fill="#111111"/>
<path d="M18.9999 10.0493L19 12.0618C15.0537 12.5539 12 15.9203 12 19.9999C12 24.4182 15.5817 27.9999 20 27.9999C21.8487 27.9999 23.5509 27.3728 24.9055 26.3198L26.3289 27.7427C24.605 29.1535 22.4014 29.9999 20 29.9999C14.4771 29.9999 10 25.5227 10 19.9999C10 14.8146 13.9466 10.5511 18.9999 10.0493ZM29.9506 21C29.7509 23.011 28.9555 24.8467 27.7433 26.3282L26.3199 24.9054C27.1801 23.7989 27.756 22.4605 27.9381 20.9998L29.9506 21ZM21.0011 10.0494C25.725 10.519 29.4815 14.2758 29.9506 18.9998L27.9381 18.9999C27.4869 15.3816 24.6192 12.5136 21.001 12.0619L21.0011 10.0494Z" fill="white"/>
</svg>
