<svg width="40" height="40" viewBox="0 0 40 40" fill="none" xmlns="http://www.w3.org/2000/svg">
<rect width="40" height="40" rx="8" fill="#111111"/>
<path d="M14.2351 14.4533C12.851 15.8915 12 17.8464 12 20C12 24.4183 15.5817 28 20 28C21.0808 28 22.1116 27.7857 23.0521 27.3972C23.1671 26.6467 22.9148 25.9266 22.8116 25.6746C22.582 25.115 21.8241 24.1582 20.5589 22.8308C20.2212 22.4758 20.2429 22.2035 20.3636 21.3943L20.3775 21.3029C20.4595 20.7486 20.5971 20.4209 22.4622 20.1248C23.4097 19.9746 23.6589 20.3533 24.0043 20.8777C24.0425 20.9358 24.0807 20.9928 24.1198 21.0499C24.4479 21.5297 24.691 21.6394 25.0582 21.8064C25.2227 21.881 25.428 21.9751 25.7031 22.1314C26.3551 22.504 26.3551 22.9247 26.3551 23.8472V23.9518C26.3551 24.3434 26.3168 24.6872 26.2566 24.9859C27.3478 23.6185 28 21.8854 28 20C28 16.7009 26.003 13.8682 23.1519 12.6448C22.5987 13.0181 21.8398 13.5473 21.575 13.91C21.4396 14.0954 21.2482 15.0417 20.6257 15.1198C20.4626 15.1402 20.2438 15.1259 20.012 15.111C19.3905 15.0706 18.5402 15.0161 18.268 15.755C18.0952 16.2232 18.0648 17.4944 18.6239 18.1543C18.7134 18.2597 18.7307 18.4547 18.6699 18.6735C18.59 18.9608 18.4286 19.1356 18.3783 19.1717C18.2819 19.1163 18.0896 18.8931 17.9594 18.7412C17.6455 18.3765 17.254 17.9223 16.748 17.7818C16.5639 17.7308 16.3617 17.6887 16.1655 17.6474C15.6164 17.5323 14.9944 17.4013 14.8499 17.093C14.7444 16.8672 14.7449 16.5562 14.7453 16.2276C14.7453 15.8112 14.7453 15.3403 14.5413 14.8826C14.4625 14.7054 14.3569 14.5645 14.2351 14.4533ZM20 30C14.4771 30 10 25.5228 10 20C10 14.4771 14.4771 10 20 10C25.5228 10 30 14.4771 30 20C30 25.5228 25.5228 30 20 30Z" fill="white"/>
</svg>
