<svg width="973" height="124" viewBox="0 0 973 124" fill="none" xmlns="http://www.w3.org/2000/svg">
<path d="M-5.86984e-05 121.97V2.03845H85.2769V24.9715H26.6702V49.6033H80.1806V71.8568H26.6702V98.8668H86.1262V121.97H-5.86984e-05ZM104.512 121.97V2.03845H152.587C161.534 2.03845 169.857 3.51069 177.558 6.45518C185.259 9.39967 191.941 13.5333 197.604 18.856C203.266 24.1787 207.683 30.5207 210.854 37.8819C214.025 45.1299 215.61 53.1706 215.61 62.0041C215.61 70.7243 214.025 78.765 210.854 86.1262C207.683 93.4875 203.266 99.8294 197.604 105.152C191.941 110.475 185.316 114.609 177.728 117.553C170.141 120.497 161.873 121.97 152.927 121.97H104.512ZM152.247 25.3112H131.183V98.5271H152.247C163.119 98.5271 171.839 95.2995 178.408 88.8442C184.976 82.389 188.261 73.3857 188.261 61.8342C188.261 50.396 184.92 41.4493 178.238 34.9941C171.669 28.5388 163.006 25.3112 152.247 25.3112ZM280.826 123.838C270.973 123.838 262.253 121.743 254.665 117.553C247.191 113.25 241.302 107.417 236.999 100.056C232.808 92.6947 230.713 84.2576 230.713 74.7447V2.03845H257.553V76.2735C257.553 83.5215 259.762 89.2406 264.178 93.4308C268.708 97.5078 274.258 99.5463 280.826 99.5463C287.508 99.5463 293 97.5078 297.304 93.4308C301.607 89.2406 303.759 83.5781 303.759 76.4434V2.03845H330.599V74.9145C330.599 84.4275 328.504 92.8646 324.314 100.226C320.124 107.587 314.291 113.363 306.817 117.553C299.342 121.743 290.679 123.838 280.826 123.838ZM408.767 123.838C399.707 123.838 391.326 122.309 383.625 119.252C376.038 116.081 369.412 111.721 363.75 106.171C358.087 100.509 353.671 93.9405 350.5 86.466C347.329 78.8783 345.743 70.6677 345.743 61.8342C345.743 53.114 347.329 45.0167 350.5 37.5422C353.671 30.0677 358.087 23.5559 363.75 18.0066C369.412 12.3442 376.038 7.98404 383.625 4.92631C391.213 1.75533 399.537 0.169832 408.597 0.169832C418.11 0.169832 426.547 1.6987 433.908 4.75643C441.383 7.81417 447.894 12.0044 453.444 17.3271L435.607 35.3338C432.436 31.9363 428.585 29.275 424.055 27.3497C419.639 25.4245 414.486 24.4619 408.597 24.4619C401.575 24.4619 395.403 26.0474 390.08 29.2183C384.758 32.2761 380.568 36.6362 377.51 42.2987C374.565 47.8479 373.093 54.3597 373.093 61.8342C373.093 69.4219 374.565 76.047 377.51 81.7095C380.568 87.372 384.758 91.7887 390.08 94.9597C395.403 98.0174 401.575 99.5463 408.597 99.5463C414.712 99.5463 420.035 98.5837 424.565 96.6585C429.095 94.7332 433.002 92.0718 436.286 88.6744L454.293 106.681C448.517 112.004 441.892 116.194 434.418 119.252C427.056 122.309 418.506 123.838 408.767 123.838ZM456.99 121.97L504.555 2.03845H528.677L575.732 121.97H547.533L539.549 100.226H492.663L484.679 121.97H456.99ZM500.647 78.4819H531.734L516.276 35.6736L500.647 78.4819ZM604.373 121.97V25.3112H566.831V2.03845H668.586V25.3112H631.043V121.97H604.373ZM683.479 121.97V2.03845H710.149V121.97H683.479ZM790.494 124.008C781.434 124.008 773.054 122.423 765.353 119.252C757.765 116.081 751.083 111.664 745.308 106.002C739.532 100.339 735.059 93.7706 731.888 86.2961C728.717 78.7084 727.131 70.5544 727.131 61.8342C727.131 53.114 728.717 45.0167 731.888 37.5422C735.059 29.9545 739.475 23.386 745.138 17.8368C750.8 12.1743 757.425 7.81417 765.013 4.75643C772.714 1.58544 781.095 -5.06161e-05 790.154 -5.06161e-05C799.101 -5.06161e-05 807.368 1.58544 814.956 4.75643C822.657 7.81417 829.339 12.1743 835.001 17.8368C840.777 23.386 845.25 29.9545 848.421 37.5422C851.592 45.0167 853.178 53.1706 853.178 62.0041C853.178 70.7243 851.592 78.8783 848.421 86.466C845.25 93.9405 840.834 100.509 835.171 106.171C829.509 111.721 822.827 116.081 815.126 119.252C807.538 122.423 799.328 124.008 790.494 124.008ZM790.154 99.7162C797.289 99.7162 803.518 98.1307 808.841 94.9597C814.163 91.7887 818.297 87.372 821.241 81.7095C824.299 76.047 825.828 69.4219 825.828 61.8342C825.828 54.3597 824.299 47.7913 821.241 42.1288C818.297 36.4663 814.107 32.1062 808.671 29.0485C803.348 25.8775 797.176 24.292 790.154 24.292C783.02 24.292 776.734 25.8775 771.298 29.0485C765.976 32.1062 761.842 36.4663 758.898 42.1288C755.953 47.7913 754.481 54.3597 754.481 61.8342C754.481 69.4219 755.953 76.047 758.898 81.7095C761.842 87.372 765.976 91.7887 771.298 94.9597C776.734 98.1307 783.02 99.7162 790.154 99.7162ZM870.108 121.97V2.03845H888.794L945.702 74.9145V2.03845H972.373V121.97H952.837L896.778 50.1129V121.97H870.108Z" fill="#CECFCA"/>
</svg>
