<svg width="40" height="40" viewBox="0 0 40 40" fill="none" xmlns="http://www.w3.org/2000/svg">
<rect width="40" height="40" rx="8" fill="#111111"/>
<path d="M16 12C16 13.1046 15.1046 14 14 14C12.8954 14 12 13.1046 12 12C12 10.8954 12.8954 10 14 10C15.1046 10 16 10.8954 16 12ZM13 24V30H11V18C11 16.3432 12.3432 15 14 15C14.8206 15 15.5642 15.3295 16.1059 15.8633L18.4803 18.1057L20.7931 15.7929L22.2073 17.2071L18.5201 20.8943L17 19.4587V30H15V24H13ZM14 17C13.4477 17 13 17.4477 13 18V22H15V18C15 17.4477 14.5523 17 14 17ZM27 13H18V11H28C28.5523 11 29 11.4477 29 12V23C29 23.5523 28.5523 24 28 24H24.5758L27.3993 30H25.1889L22.3654 24H18V22H27V13Z" fill="white"/>
</svg>
