<svg width="987" height="128" viewBox="0 0 987 128" fill="none" xmlns="http://www.w3.org/2000/svg">
<path d="M46.289 127.821C36.1194 127.821 27.3526 126.184 19.9884 122.911C12.7411 119.522 6.07833 114.437 -2.64781e-05 107.657L17.8844 89.948C21.8587 94.5068 26.2421 98.0719 31.0346 100.644C35.9441 103.098 41.6133 104.326 48.0423 104.326C53.8869 104.326 58.3872 103.274 61.5433 101.17C64.8163 99.0655 66.4527 96.1432 66.4527 92.4027C66.4527 89.0129 65.4007 86.2659 63.2967 84.1619C61.1926 82.0578 58.3872 80.246 54.8805 78.7264C51.4906 77.2068 47.6917 75.7457 43.4836 74.343C39.3924 72.9403 35.3012 71.3623 31.21 69.6089C27.1188 67.7386 23.3198 65.4592 19.8131 62.7707C16.4232 59.9653 13.6763 56.517 11.5722 52.4258C9.46818 48.2178 8.41615 42.9576 8.41615 36.6455C8.41615 29.0476 10.228 22.5017 13.8516 17.0078C17.5921 11.5139 22.7353 7.36422 29.2813 4.55882C35.8272 1.63654 43.3667 0.175401 51.8998 0.175401C60.5497 0.175401 68.4399 1.69499 75.5703 4.73416C82.8175 7.77334 88.779 11.923 93.4546 17.1831L75.5703 34.8921C71.8297 31.0347 68.0308 28.1709 64.1734 26.3006C60.4328 24.4304 56.1663 23.4952 51.3737 23.4952C46.5812 23.4952 42.7822 24.4304 39.9768 26.3006C37.1714 28.054 35.7687 30.6256 35.7687 34.0155C35.7687 37.1715 36.8208 39.7431 38.9248 41.7303C41.0289 43.6005 43.7758 45.237 47.1657 46.6397C50.6724 48.0424 54.4714 49.4451 58.5626 50.8478C62.7707 52.2505 66.9203 53.887 71.0115 55.7573C75.1027 57.6275 78.8432 60.0238 82.2331 62.9461C85.7398 65.7515 88.5452 69.3751 90.6493 73.817C92.7533 78.142 93.8053 83.519 93.8053 89.948C93.8053 101.754 89.5972 111.047 81.181 117.827C72.7649 124.489 61.1342 127.821 46.289 127.821ZM171.456 127.996C162.105 127.996 153.455 126.36 145.506 123.087C137.675 119.814 130.778 115.255 124.817 109.41C118.855 103.566 114.238 96.7861 110.965 89.0713C107.692 81.2396 106.056 72.8234 106.056 63.8228C106.056 54.7052 107.692 46.2891 110.965 38.5742C114.238 30.8594 118.797 24.1381 124.641 18.4105C130.486 12.5659 137.324 8.06556 145.156 4.90949C153.104 1.63653 161.754 5.55017e-05 171.106 5.55017e-05C180.34 5.55017e-05 188.873 1.63653 196.705 4.90949C204.654 8.06556 211.55 12.5659 217.395 18.4105C223.356 24.1381 227.973 30.9178 231.246 38.7496C234.519 46.4644 236.156 54.8806 236.156 63.9981C236.156 72.9987 234.519 81.4149 231.246 89.2466C227.973 96.9615 223.415 103.741 217.57 109.586C211.725 115.313 204.829 119.814 196.88 123.087C189.049 126.36 180.574 127.996 171.456 127.996ZM171.106 102.923C178.47 102.923 184.899 101.286 190.393 98.0135C196.004 94.7405 200.329 90.1818 203.368 84.3372C206.407 78.3757 207.926 71.5376 207.926 63.8228C207.926 57.9782 207.05 52.7181 205.296 48.0424C203.543 43.2499 201.03 39.1587 197.757 35.7688C194.484 32.2621 190.568 29.632 186.009 27.8787C181.567 26.0084 176.6 25.0733 171.106 25.0733C163.742 25.0733 157.254 26.7097 151.643 29.9827C146.149 33.1388 141.883 37.6391 138.844 43.4837C135.804 49.2113 134.285 55.991 134.285 63.8228C134.285 69.6673 135.162 74.9859 136.915 79.7784C138.668 84.571 141.123 88.7206 144.279 92.2274C147.552 95.6172 151.468 98.2473 156.027 100.118C160.585 101.988 165.612 102.923 171.106 102.923ZM253.631 125.892V2.1041H281.158V125.892H253.631ZM274.846 125.892V101.696H336.039V125.892H274.846ZM397.43 127.821C387.261 127.821 378.26 125.658 370.428 121.333C362.713 117.008 356.635 111.047 352.193 103.449C347.868 95.7341 345.706 86.9673 345.706 77.1484V2.1041H373.409V78.7264C373.409 83.6359 374.461 87.9024 376.565 91.526C378.669 95.1497 381.533 97.955 385.157 99.9422C388.897 101.812 392.988 102.748 397.43 102.748C402.106 102.748 406.197 101.812 409.704 99.9422C413.211 97.955 415.958 95.2081 417.945 91.7014C420.049 88.0777 421.101 83.8112 421.101 78.9018V2.1041H448.804V77.3237C448.804 87.1426 446.642 95.851 442.317 103.449C437.992 111.047 431.972 117.008 424.257 121.333C416.542 125.658 407.6 127.821 397.43 127.821ZM500.396 125.892V3.85747H527.924V125.892H500.396ZM461.646 26.1253V2.1041H566.673V26.1253H461.646ZM582.045 125.892V2.1041H609.573V125.892H582.045ZM692.502 127.996C683.151 127.996 674.501 126.36 666.552 123.087C658.72 119.814 651.824 115.255 645.862 109.41C639.901 103.566 635.284 96.7861 632.011 89.0713C628.738 81.2396 627.101 72.8234 627.101 63.8228C627.101 54.7052 628.738 46.2891 632.011 38.5742C635.284 30.8594 639.842 24.1381 645.687 18.4105C651.532 12.5659 658.37 8.06556 666.201 4.90949C674.15 1.63653 682.8 5.55017e-05 692.151 5.55017e-05C701.386 5.55017e-05 709.919 1.63653 717.751 4.90949C725.699 8.06556 732.596 12.5659 738.44 18.4105C744.402 24.1381 749.019 30.9178 752.292 38.7496C755.565 46.4644 757.201 54.8806 757.201 63.9981C757.201 72.9987 755.565 81.4149 752.292 89.2466C749.019 96.9615 744.46 103.741 738.616 109.586C732.771 115.313 725.874 119.814 717.926 123.087C710.094 126.36 701.62 127.996 692.502 127.996ZM692.151 102.923C699.515 102.923 705.945 101.286 711.438 98.0135C717.049 94.7405 721.374 90.1818 724.413 84.3372C727.453 78.3757 728.972 71.5376 728.972 63.8228C728.972 57.9782 728.095 52.7181 726.342 48.0424C724.589 43.2499 722.076 39.1587 718.803 35.7688C715.53 32.2621 711.614 29.632 707.055 27.8787C702.613 26.0084 697.645 25.0733 692.151 25.0733C684.787 25.0733 678.3 26.7097 672.689 29.9827C667.195 33.1388 662.928 37.6391 659.889 43.4837C656.85 49.2113 655.331 55.991 655.331 63.8228C655.331 69.6673 656.207 74.9859 657.961 79.7784C659.714 84.571 662.169 88.7206 665.325 92.2274C668.598 95.6172 672.514 98.2473 677.072 100.118C681.631 101.988 686.657 102.923 692.151 102.923ZM774.676 125.892V2.1041H793.963L802.204 26.8266V125.892H774.676ZM860.065 125.892L787.125 32.4374L793.963 2.1041L866.904 95.5588L860.065 125.892ZM860.065 125.892L852.701 101.17V2.1041H880.229V125.892H860.065ZM938.899 127.821C928.729 127.821 919.962 126.184 912.598 122.911C905.351 119.522 898.688 114.437 892.61 107.657L910.494 89.948C914.468 94.5068 918.852 98.0719 923.644 100.644C928.554 103.098 934.223 104.326 940.652 104.326C946.496 104.326 950.997 103.274 954.153 101.17C957.426 99.0655 959.062 96.1432 959.062 92.4027C959.062 89.0129 958.01 86.2659 955.906 84.1619C953.802 82.0578 950.997 80.246 947.49 78.7264C944.1 77.2068 940.301 75.7457 936.093 74.343C932.002 72.9403 927.911 71.3623 923.82 69.6089C919.728 67.7386 915.929 65.4592 912.423 62.7707C909.033 59.9653 906.286 56.517 904.182 52.4258C902.078 48.2178 901.026 42.9576 901.026 36.6455C901.026 29.0476 902.838 22.5017 906.461 17.0078C910.202 11.5139 915.345 7.36422 921.891 4.55882C928.437 1.63654 935.976 0.175401 944.509 0.175401C953.159 0.175401 961.049 1.69499 968.18 4.73416C975.427 7.77334 981.389 11.923 986.064 17.1831L968.18 34.8921C964.439 31.0347 960.64 28.1709 956.783 26.3006C953.042 24.4304 948.776 23.4952 943.983 23.4952C939.191 23.4952 935.392 24.4304 932.586 26.3006C929.781 28.054 928.378 30.6256 928.378 34.0155C928.378 37.1715 929.43 39.7431 931.534 41.7303C933.638 43.6005 936.385 45.237 939.775 46.6397C943.282 48.0424 947.081 49.4451 951.172 50.8478C955.38 52.2505 959.53 53.887 963.621 55.7573C967.712 57.6275 971.453 60.0238 974.843 62.9461C978.349 65.7515 981.155 69.3751 983.259 73.817C985.363 78.142 986.415 83.519 986.415 89.948C986.415 101.754 982.207 111.047 973.791 117.827C965.374 124.489 953.744 127.821 938.899 127.821Z" fill="#CECFCA"/>
</svg>
